<svg xmlns="http://www.w3.org/2000/svg" xmlns:svg="http://www.w3.org/2000/svg" id="svg8" width="320" height="180" version="1.1" viewBox="0 0 320 180"><defs id="defs2"><filter style="color-interpolation-filters:sRGB" id="filter919" width="1.114" height="1.184" x="-.057" y="-.092"><feFlood id="feFlood909" flood-color="#000" flood-opacity=".2" result="flood"/><feComposite id="feComposite911" in="flood" in2="SourceGraphic" operator="in" result="composite1"/><feGaussianBlur id="feGaussianBlur913" in="composite1" result="blur" stdDeviation="1"/><feOffset id="feOffset915" dx="0" dy="0" result="offset" stdDeviation="1"/><feComposite id="feComposite917" dy="1" in="SourceGraphic" in2="offset" operator="over" result="composite2"/></filter><clipPath id="clipPath849" clipPathUnits="userSpaceOnUse"><path style="fill:#fff;fill-opacity:1;stroke:none;stroke-width:2.1" id="path851" d="M 49.8,36 H 37.2 C 34.89,36 33,37.89 33,40.2 v 27.6 c 0,2.31 1.89,4.2 4.2,4.2 H 70.8 C 73.11,72 75,70.11 75,67.8 V 44.4 c 0,-2.31 -1.89,-4.2 -4.2,-4.2 H 54 Z"/></clipPath><filter id="filter849" width="1.229" height="1.322" x="-.114" y="-.133" style="color-interpolation-filters:sRGB"><feFlood id="feFlood839" flood-color="#000" flood-opacity=".2" result="flood"/><feComposite id="feComposite841" in="flood" in2="SourceGraphic" operator="in" result="composite1"/><feGaussianBlur id="feGaussianBlur843" in="composite1" result="blur" stdDeviation="2"/><feOffset id="feOffset845" dx="0" dy="2" result="offset"/><feComposite id="feComposite847" in="SourceGraphic" in2="offset" operator="over" result="composite2"/></filter><filter style="color-interpolation-filters:sRGB" id="filter856" width="1.067" height="1.081" x="-.033" y="-.033"><feFlood id="feFlood845" flood-color="#000" flood-opacity=".3" result="flood"/><feComposite id="feComposite848" in="flood" in2="SourceGraphic" operator="in" result="composite1"/><feGaussianBlur id="feGaussianBlur850" in="composite1" result="blur" stdDeviation="1"/><feOffset id="feOffset852" dx="0" dy="1" result="offset"/><feComposite id="feComposite854" in="SourceGraphic" in2="offset" operator="over" result="composite2"/></filter><clipPath id="clipPath1" clipPathUnits="userSpaceOnUse"><g id="g2"><circle id="circle1" cx="54" cy="54" r="36" style="opacity:1;fill:#fff;fill-opacity:1;fill-rule:nonzero;stroke:none;stroke-width:1.54617;stroke-linecap:round;stroke-linejoin:miter;stroke-miterlimit:4;stroke-dasharray:none;stroke-opacity:1"/></g></clipPath><clipPath id="clipPath2" clipPathUnits="userSpaceOnUse"><g id="g3"><circle id="circle2" cx="54" cy="54" r="36" style="opacity:1;fill:#fff;fill-opacity:1;fill-rule:nonzero;stroke:none;stroke-width:1.54617;stroke-linecap:round;stroke-linejoin:miter;stroke-miterlimit:4;stroke-dasharray:none;stroke-opacity:1"/></g></clipPath><clipPath id="clipPath3" clipPathUnits="userSpaceOnUse"><g id="g4"><circle id="circle3" cx="54" cy="54" r="36" style="opacity:1;fill:#fff;fill-opacity:1;fill-rule:nonzero;stroke:none;stroke-width:1.54617;stroke-linecap:round;stroke-linejoin:miter;stroke-miterlimit:4;stroke-dasharray:none;stroke-opacity:1"/></g></clipPath><clipPath id="clipPath4" clipPathUnits="userSpaceOnUse"><g id="g5"><circle id="circle4" cx="54" cy="54" r="36" style="opacity:1;fill:#fff;fill-opacity:1;fill-rule:nonzero;stroke:none;stroke-width:1.54617;stroke-linecap:round;stroke-linejoin:miter;stroke-miterlimit:4;stroke-dasharray:none;stroke-opacity:1"/></g></clipPath></defs><metadata id="metadata5"/><g id="layer"><rect style="fill:#1a73e8;fill-opacity:1;fill-rule:evenodd;stroke-width:.166666" id="background" width="320" height="180" x="0" y="0"/><g id="folder" transform="matrix(1.0852713,0,0,1.0852713,-5.313651,30.310078)"><path id="folder-edge-bottom" style="fill:#000;fill-opacity:.2;fill-rule:evenodd;stroke:none;stroke-width:1px;stroke-linecap:butt;stroke-linejoin:miter;stroke-opacity:1" d="m 33,67.800781 v 1 C 33,71.110781 34.889219,73 37.199219,73 H 70.800781 C 73.110781,73 75,71.110781 75,68.800781 v -1 C 75,70.110781 73.110781,72 70.800781,72 H 37.199219 C 34.889219,72 33,70.110781 33,67.800781 Z" clip-path="url(#clipPath4)"/><path id="folder-background" d="M 49.8,36 H 37.2 C 34.89,36 33,37.89 33,40.2 v 27.6 c 0,2.31 1.89,4.2 4.2,4.2 H 70.8 C 73.11,72 75,70.11 75,67.8 V 44.4 c 0,-2.31 -1.89,-4.2 -4.2,-4.2 H 54 Z" style="fill:#f1f3f4;fill-opacity:1;stroke:none;stroke-width:2.1;filter:url(#filter849)" clip-path="url(#clipPath3)"/><path style="fill:#fff;fill-opacity:1;stroke:none;stroke-width:2.1;filter:url(#filter919)" id="folder-foreground" d="m 37.2,45.9 c -2.31,0 -4.2,1.89 -4.2,4.2 v 17.7 c 0,2.31 1.89,4.2 4.2,4.2 H 70.8 C 73.11,72 75,70.11 75,67.8 V 50.1 c 0,-2.31 -1.89,-4.2 -4.2,-4.2 z" clip-path="url(#clipPath2)"/></g><text xml:space="preserve" style="font-style:normal;font-variant:normal;font-weight:400;font-stretch:normal;font-size:42px;line-height:1;font-family:'Noto Sans';-inkscape-font-specification:'Noto Sans';fill:#000;fill-opacity:1;stroke:none" id="text" x="87.774" y="105.75"><tspan x="87.774" y="105.75" style="font-style:normal;font-variant:normal;font-weight:500;font-stretch:extra-condensed;font-size:42px;line-height:1;font-family:'Noto Sans ExtraCondensed';-inkscape-font-specification:'Noto Sans ExtraCondensed, Medium Extra-Condensed';fill:#fff;fill-opacity:1" id="tspan">Material Files</tspan></text></g></svg>